<?xml version="1.0" encoding="UTF-8"?>
<!DOCTYPE svg PUBLIC "-//W3C//DTD SVG 1.1//EN" "http://www.w3.org/Graphics/SVG/1.1/DTD/svg11.dtd">
<svg version="1.2" width="141.11mm" height="141.11mm" viewBox="0 0 14111 14111" preserveAspectRatio="xMidYMid" fill-rule="evenodd" stroke-width="28.222" stroke-linejoin="round" xmlns="http://www.w3.org/2000/svg" xmlns:ooo="http://xml.openoffice.org/svg/export" xmlns:xlink="http://www.w3.org/1999/xlink" xmlns:presentation="http://sun.com/xmlns/staroffice/presentation" xmlns:smil="http://www.w3.org/2001/SMIL20/" xmlns:anim="urn:oasis:names:tc:opendocument:xmlns:animation:1.0" xmlns:svg="urn:oasis:names:tc:opendocument:xmlns:svg-compatible:1.0" xml:space="preserve">
 <defs class="ClipPathGroup">
  <clipPath id="presentation_clip_path" clipPathUnits="userSpaceOnUse">
   <rect x="0" y="0" width="14111" height="14111"/>
  </clipPath>
  <clipPath id="presentation_clip_path_shrink" clipPathUnits="userSpaceOnUse">
   <rect x="14" y="14" width="14083" height="14083"/>
  </clipPath>
 </defs>
 <defs class="TextShapeIndex">
  <g ooo:slide="id1" ooo:id-list="id3 id4 id5 id6 id7 id8 id9 id10 id11 id12"/>
 </defs>
 <defs class="EmbeddedBulletChars">
  <g id="bullet-char-template-57356" transform="scale(0.00048828125,-0.00048828125)">
   <path d="M 580,1141 L 1163,571 580,0 -4,571 580,1141 Z"/>
  </g>
  <g id="bullet-char-template-57354" transform="scale(0.00048828125,-0.00048828125)">
   <path d="M 8,1128 L 1137,1128 1137,0 8,0 8,1128 Z"/>
  </g>
  <g id="bullet-char-template-10146" transform="scale(0.00048828125,-0.00048828125)">
   <path d="M 174,0 L 602,739 174,1481 1456,739 174,0 Z M 1358,739 L 309,1346 659,739 1358,739 Z"/>
  </g>
  <g id="bullet-char-template-10132" transform="scale(0.00048828125,-0.00048828125)">
   <path d="M 2015,739 L 1276,0 717,0 1260,543 174,543 174,936 1260,936 717,1481 1274,1481 2015,739 Z"/>
  </g>
  <g id="bullet-char-template-10007" transform="scale(0.00048828125,-0.00048828125)">
   <path d="M 0,-2 C -7,14 -16,27 -25,37 L 356,567 C 262,823 215,952 215,954 215,979 228,992 255,992 264,992 276,990 289,987 310,991 331,999 354,1012 L 381,999 492,748 772,1049 836,1024 860,1049 C 881,1039 901,1025 922,1006 886,937 835,863 770,784 769,783 710,716 594,584 L 774,223 C 774,196 753,168 711,139 L 727,119 C 717,90 699,76 672,76 641,76 570,178 457,381 L 164,-76 C 142,-110 111,-127 72,-127 30,-127 9,-110 8,-76 1,-67 -2,-52 -2,-32 -2,-23 -1,-13 0,-2 Z"/>
  </g>
  <g id="bullet-char-template-10004" transform="scale(0.00048828125,-0.00048828125)">
   <path d="M 285,-33 C 182,-33 111,30 74,156 52,228 41,333 41,471 41,549 55,616 82,672 116,743 169,778 240,778 293,778 328,747 346,684 L 369,508 C 377,444 397,411 428,410 L 1163,1116 C 1174,1127 1196,1133 1229,1133 1271,1133 1292,1118 1292,1087 L 1292,965 C 1292,929 1282,901 1262,881 L 442,47 C 390,-6 338,-33 285,-33 Z"/>
  </g>
  <g id="bullet-char-template-9679" transform="scale(0.00048828125,-0.00048828125)">
   <path d="M 813,0 C 632,0 489,54 383,161 276,268 223,411 223,592 223,773 276,916 383,1023 489,1130 632,1184 813,1184 992,1184 1136,1130 1245,1023 1353,916 1407,772 1407,592 1407,412 1353,268 1245,161 1136,54 992,0 813,0 Z"/>
  </g>
  <g id="bullet-char-template-8226" transform="scale(0.00048828125,-0.00048828125)">
   <path d="M 346,457 C 273,457 209,483 155,535 101,586 74,649 74,723 74,796 101,859 155,911 209,963 273,989 346,989 419,989 480,963 531,910 582,859 608,796 608,723 608,648 583,586 532,535 482,483 420,457 346,457 Z"/>
  </g>
  <g id="bullet-char-template-8211" transform="scale(0.00048828125,-0.00048828125)">
   <path d="M -4,459 L 1135,459 1135,606 -4,606 -4,459 Z"/>
  </g>
  <g id="bullet-char-template-61548" transform="scale(0.00048828125,-0.00048828125)">
   <path d="M 173,740 C 173,903 231,1043 346,1159 462,1274 601,1332 765,1332 928,1332 1067,1274 1183,1159 1299,1043 1357,903 1357,740 1357,577 1299,437 1183,322 1067,206 928,148 765,148 601,148 462,206 346,322 231,437 173,577 173,740 Z"/>
  </g>
 </defs>
 <g>
  <g id="id2" class="Master_Slide">
   <g id="bg-id2" class="Background"/>
   <g id="bo-id2" class="BackgroundObjects"/>
  </g>
 </g>
 <g class="SlideGroup">
  <g>
   <g id="container-id1">
    <g id="id1" class="Slide" clip-path="url(#presentation_clip_path)">
     <g class="Page">
      <g class="com.sun.star.drawing.PolyPolygonShape">
       <g id="id3">
        <rect class="BoundingBox" stroke="none" fill="none" x="282" y="282" width="13619" height="13619"/>
        <path fill="rgb(255,255,255)" stroke="none" d="M 917,917 L 917,13265 13265,13265 13265,917 917,917 Z M 282,282 L 13900,282 13900,13900 282,13900 282,282 Z "/>
       </g>
      </g>
      <g class="com.sun.star.drawing.ClosedBezierShape">
       <g id="id4">
        <rect class="BoundingBox" stroke="none" fill="none" x="2067" y="2356" width="1251" height="1808"/>
        <path fill="rgb(255,255,255)" stroke="none" d="M 2068,3884 L 2516,3884 2516,3173 2068,3173 2068,2893 2846,2893 2846,3884 3317,3884 3317,4163 2068,4163 2068,3884 Z M 2455,2547 C 2455,2494 2474,2449 2513,2412 2552,2375 2606,2356 2676,2356 2747,2356 2803,2375 2846,2412 2888,2449 2909,2494 2909,2547 2909,2601 2888,2645 2846,2680 2803,2716 2747,2733 2676,2733 2606,2733 2552,2716 2513,2680 2474,2645 2455,2601 2455,2547 Z "/>
       </g>
      </g>
      <g class="com.sun.star.drawing.ClosedBezierShape">
       <g id="id5">
        <rect class="BoundingBox" stroke="none" fill="none" x="6506" y="2384" width="1001" height="1813"/>
        <path fill="rgb(255,255,255)" stroke="none" d="M 6506,2384 L 6928,2384 6928,3737 C 6928,3840 6945,3913 6980,3955 7015,3997 7066,4018 7134,4018 7181,4018 7229,4009 7278,3991 7327,3972 7372,3946 7413,3912 L 7505,4046 C 7477,4070 7448,4091 7415,4110 7383,4129 7350,4144 7316,4157 7283,4170 7249,4179 7215,4186 7181,4193 7150,4196 7121,4196 7058,4196 7002,4188 6953,4172 6904,4156 6863,4130 6830,4095 6797,4059 6772,4012 6755,3954 6738,3895 6730,3823 6730,3737 L 6730,2554 6506,2554 6506,2384 Z "/>
       </g>
      </g>
      <g class="com.sun.star.drawing.ClosedBezierShape">
       <g id="id6">
        <rect class="BoundingBox" stroke="none" fill="none" x="10855" y="2892" width="1292" height="1793"/>
        <path fill="rgb(255,255,255)" stroke="none" d="M 11529,3967 L 11626,3967 11940,2892 12146,2892 11793,4033 C 11775,4092 11755,4159 11736,4235 11717,4310 11689,4381 11653,4447 11618,4514 11570,4570 11509,4615 11448,4661 11368,4684 11270,4684 11248,4684 11225,4681 11200,4676 11176,4671 11151,4665 11128,4657 11104,4650 11082,4641 11062,4631 11041,4620 11026,4610 11016,4600 L 11087,4416 C 11097,4425 11111,4433 11129,4442 11147,4450 11166,4457 11187,4463 11209,4469 11229,4474 11250,4480 11270,4484 11287,4486 11300,4486 11427,4486 11514,4377 11559,4162 L 11389,4162 10855,2892 11084,2892 11529,3967 Z "/>
       </g>
      </g>
      <g class="com.sun.star.drawing.ClosedBezierShape">
       <g id="id7">
        <rect class="BoundingBox" stroke="none" fill="none" x="2109" y="6682" width="1196" height="1315"/>
        <path fill="rgb(255,255,255)" stroke="none" d="M 2193,6801 C 2266,6759 2348,6729 2439,6710 2531,6691 2620,6682 2709,6682 2795,6682 2866,6696 2921,6723 2976,6750 3020,6785 3051,6828 3083,6871 3104,6920 3115,6975 3126,7030 3131,7086 3131,7142 3131,7206 3129,7276 3126,7348 3123,7421 3120,7494 3118,7567 3118,7652 3124,7732 3134,7808 L 3304,7808 3304,7973 2965,7973 2942,7783 2930,7783 C 2919,7798 2904,7817 2884,7841 2863,7865 2837,7888 2804,7911 2771,7934 2731,7954 2683,7971 2636,7988 2580,7996 2516,7996 2390,7996 2291,7964 2218,7900 2146,7835 2109,7747 2109,7635 2109,7549 2128,7477 2166,7420 2204,7362 2259,7318 2330,7287 2401,7257 2487,7239 2588,7234 2689,7229 2802,7236 2927,7254 2935,7176 2937,7111 2931,7059 2925,7008 2911,6966 2890,6936 2869,6905 2839,6884 2801,6871 2763,6858 2716,6852 2660,6852 2584,6852 2511,6863 2442,6884 2372,6905 2311,6927 2256,6949 L 2193,6801 Z M 2566,7826 C 2614,7826 2658,7818 2698,7803 2739,7788 2775,7768 2805,7745 2836,7721 2861,7695 2881,7667 2902,7639 2917,7613 2927,7587 L 2927,7409 C 2839,7394 2758,7387 2683,7387 2609,7387 2544,7395 2490,7411 2436,7427 2394,7452 2363,7486 2333,7519 2317,7563 2317,7618 2317,7674 2336,7722 2375,7764 2413,7805 2477,7826 2566,7826 Z "/>
       </g>
      </g>
      <g class="com.sun.star.drawing.PolyPolygonShape">
       <g id="id8">
        <rect class="BoundingBox" stroke="none" fill="none" x="6328" y="6194" width="1478" height="1781"/>
        <path fill="rgb(255,255,255)" stroke="none" d="M 6328,6194 L 6868,6194 6868,7209 6944,7209 7361,6703 7749,6703 7236,7282 7569,7695 7805,7695 7805,7974 7394,7974 6957,7447 6868,7447 6868,7974 6537,7974 6537,6474 6328,6474 6328,6194 Z "/>
       </g>
      </g>
      <g class="com.sun.star.drawing.ClosedBezierShape">
       <g id="id9">
        <rect class="BoundingBox" stroke="none" fill="none" x="10827" y="6667" width="1348" height="1343"/>
        <path fill="rgb(255,255,255)" stroke="none" d="M 10827,7337 C 10827,7231 10843,7136 10875,7053 10907,6970 10953,6900 11012,6842 11072,6784 11142,6741 11224,6711 11307,6682 11398,6667 11501,6667 11608,6667 11703,6683 11787,6715 11871,6747 11941,6792 11999,6851 12056,6909 12100,6980 12130,7063 12159,7146 12174,7237 12174,7337 12174,7445 12158,7540 12126,7623 12094,7706 12048,7776 11989,7834 11929,7891 11859,7935 11777,7964 11695,7994 11603,8009 11501,8009 11393,8009 11298,7993 11214,7961 11130,7928 11060,7883 11002,7825 10945,7766 10901,7696 10871,7613 10842,7530 10827,7438 10827,7337 Z M 11167,7337 C 11167,7394 11175,7446 11190,7493 11205,7541 11227,7582 11256,7618 11285,7653 11320,7681 11360,7700 11401,7720 11449,7729 11501,7729 11599,7729 11679,7698 11741,7635 11803,7573 11834,7474 11834,7337 11834,7220 11805,7126 11747,7054 11690,6982 11608,6946 11501,6946 11454,6946 11409,6953 11368,6968 11327,6982 11292,7005 11263,7038 11233,7070 11210,7110 11193,7159 11176,7209 11167,7268 11167,7337 Z "/>
       </g>
      </g>
      <g class="com.sun.star.drawing.ClosedBezierShape">
       <g id="id10">
        <rect class="BoundingBox" stroke="none" fill="none" x="2063" y="10482" width="1237" height="1334"/>
        <path fill="rgb(255,255,255)" stroke="none" d="M 2063,11147 C 2063,10942 2117,10780 2223,10661 2330,10541 2482,10482 2681,10482 2787,10482 2879,10499 2956,10534 3033,10569 3098,10616 3149,10675 3200,10734 3237,10804 3262,10886 3287,10967 3299,11054 3299,11147 3299,11249 3285,11342 3258,11424 3231,11506 3191,11576 3139,11633 3086,11691 3021,11735 2944,11767 2866,11798 2779,11814 2681,11814 2576,11814 2484,11796 2406,11762 2328,11727 2264,11680 2213,11621 2162,11561 2125,11491 2100,11410 2076,11329 2063,11240 2063,11147 Z M 2274,11147 C 2274,11207 2281,11266 2296,11326 2310,11385 2333,11439 2366,11486 2398,11534 2440,11572 2491,11600 2543,11629 2606,11644 2681,11644 2816,11644 2918,11602 2987,11518 3055,11434 3091,11311 3091,11147 3091,11086 3082,11027 3068,10968 3054,10910 3030,10857 2997,10809 2964,10762 2921,10724 2870,10695 2818,10666 2755,10652 2681,10652 2545,10652 2444,10693 2376,10776 2308,10859 2274,10983 2274,11147 Z "/>
       </g>
      </g>
      <g class="com.sun.star.drawing.ClosedBezierShape">
       <g id="id11">
        <rect class="BoundingBox" stroke="none" fill="none" x="6473" y="10482" width="1237" height="1334"/>
        <path fill="rgb(255,255,255)" stroke="none" d="M 6473,11147 C 6473,10942 6526,10780 6633,10661 6740,10541 6893,10482 7091,10482 7198,10482 7290,10499 7367,10534 7444,10569 7508,10616 7559,10675 7609,10734 7647,10804 7672,10886 7696,10967 7709,11054 7709,11147 7709,11249 7695,11342 7668,11424 7641,11506 7601,11576 7549,11633 7496,11691 7431,11735 7354,11767 7277,11798 7190,11814 7091,11814 6986,11814 6895,11796 6817,11762 6738,11727 6674,11680 6623,11621 6572,11561 6534,11491 6510,11410 6485,11329 6473,11240 6473,11147 Z M 6684,11147 C 6684,11207 6691,11266 6706,11326 6720,11385 6743,11439 6775,11486 6809,11534 6850,11572 6902,11600 6954,11629 7017,11644 7091,11644 7227,11644 7329,11602 7397,11518 7466,11434 7500,11311 7500,11147 7500,11086 7493,11027 7479,10968 7464,10910 7441,10857 7408,10809 7375,10762 7332,10724 7281,10695 7229,10666 7166,10652 7091,10652 6956,10652 6854,10693 6786,10776 6718,10859 6684,10983 6684,11147 Z "/>
       </g>
      </g>
      <g class="com.sun.star.drawing.ClosedBezierShape">
       <g id="id12">
        <rect class="BoundingBox" stroke="none" fill="none" x="10878" y="9974" width="1244" height="1841"/>
        <path fill="rgb(255,255,255)" stroke="none" d="M 10878,10894 C 10878,10750 10890,10621 10916,10507 10941,10393 10979,10296 11030,10217 11081,10139 11145,10078 11223,10036 11301,9995 11393,9974 11500,9974 11614,9974 11710,9994 11788,10035 11868,10075 11932,10136 11981,10214 12030,10291 12066,10388 12088,10502 12110,10616 12121,10747 12121,10894 12121,11038 12108,11167 12083,11282 12057,11396 12019,11492 11968,11571 11918,11650 11853,11710 11774,11752 11696,11793 11604,11814 11498,11814 11386,11814 11291,11791 11212,11746 11133,11702 11069,11638 11019,11557 10969,11476 10933,11379 10911,11266 10889,11154 10878,11030 10878,10894 Z M 11913,10894 C 11913,10805 11907,10719 11897,10638 L 11142,11326 C 11171,11423 11214,11500 11271,11557 11329,11615 11404,11644 11498,11644 11647,11644 11753,11582 11817,11458 11881,11335 11913,11147 11913,10894 Z M 11089,10894 C 11089,10937 11090,10977 11092,11016 11095,11055 11098,11093 11101,11130 L 11859,10445 C 11830,10353 11787,10280 11730,10226 11673,10172 11597,10145 11500,10145 11349,10145 11243,10207 11181,10332 11119,10456 11089,10644 11089,10894 Z "/>
       </g>
      </g>
     </g>
    </g>
   </g>
  </g>
 </g>
</svg>