<svg width="811" height="190" viewBox="0 0 811 190" fill="none" xmlns="http://www.w3.org/2000/svg">
<path d="M50.087 67.416L82.471 111H60.647L34.087 73.816V111H15.783V26.52H34.087V61.528L58.535 26.52H79.207L50.087 67.416Z" fill="white"/>
<path d="M86.988 26.52H105.292V111H86.988V26.52Z" fill="white"/>
<path d="M131.441 42.584H111.089V26.52H170.161V42.584H149.745V111H131.441V42.584Z" fill="white"/>
<path d="M217.956 94.424C222.009 94.424 225.679 93.848 228.964 92.696C232.249 91.5013 234.681 90.328 236.26 89.176L244.068 104.728C242.105 106.435 238.692 108.163 233.828 109.912C229.007 111.661 223.268 112.536 216.612 112.536C210.383 112.536 204.537 111.448 199.076 109.272C193.657 107.053 188.857 103.981 184.676 100.056C180.537 96.088 177.295 91.4587 174.948 86.168C172.644 80.8773 171.492 75.1173 171.492 68.888C171.492 62.6587 172.644 56.8773 174.948 51.544C177.295 46.2107 180.537 41.56 184.676 37.592C188.815 33.624 193.615 30.5307 199.076 28.312C204.537 26.0933 210.383 24.984 216.612 24.984C223.268 24.984 229.007 25.8587 233.828 27.608C238.692 29.3573 242.105 31.0853 244.068 32.792L236.26 48.344C234.681 47.192 232.249 46.04 228.964 44.888C225.679 43.6933 222.009 43.096 217.956 43.096C213.561 43.096 209.7 43.7787 206.372 45.144C203.044 46.5093 200.249 48.408 197.988 50.84C195.769 53.2293 194.084 55.96 192.932 59.032C191.823 62.104 191.268 65.3253 191.268 68.696C191.268 72.1093 191.823 75.3733 192.932 78.488C194.084 81.56 195.769 84.312 197.988 86.744C200.249 89.1333 203.044 91.0107 206.372 92.376C209.7 93.7413 213.561 94.424 217.956 94.424Z" fill="white"/>
<path d="M300.59 76.632H270.254V111H252.014V26.52H270.254V60.632H300.59V26.52H318.766V111H300.59V76.632Z" fill="white"/>
<path d="M329.674 26.52H383.178V42.584H347.914V60.888H382.794V76.44H347.914V94.936H383.178V111H329.674V26.52Z" fill="white"/>
<path d="M411.044 43.352L412.324 43.544V111H394.084V26.52H419.108L454.308 93.848L453.028 94.104V26.52H471.268V111H446.116L411.044 43.352Z" fill="white"/>
<path d="M511.645 26.52H545.629C550.493 26.52 554.845 27.544 558.685 29.592C562.525 31.5973 565.554 34.52 567.773 38.36C569.992 42.2 571.101 46.7867 571.101 52.12C571.101 57.4533 570.141 61.8267 568.221 65.24C566.301 68.6107 563.997 71.1493 561.309 72.856C558.664 74.52 556.189 75.5013 553.885 75.8L574.493 111H553.949L535.517 77.208H529.949V111H511.645V26.52ZM529.949 64.536H539.101C542.642 64.536 545.736 63.6613 548.381 61.912C551.026 60.1627 552.349 57.0907 552.349 52.696C552.349 48.344 551.048 45.3147 548.445 43.608C545.842 41.9013 542.77 41.048 539.229 41.048H529.949V64.536Z" fill="white"/>
<path d="M604.514 26.52H622.69L655.842 111H636.386L630.05 93.656H597.218L590.882 111H571.298L604.514 26.52ZM603.298 77.656H624.034L613.73 48.6H613.538L603.298 77.656Z" fill="white"/>
<path d="M695.737 111H675.065L644.857 26.52H665.465L685.369 87.768L705.337 26.52H725.945L695.737 111Z" fill="white"/>
<path d="M731.759 26.52H785.263V42.584H749.999V60.888H784.879V76.44H749.999V94.936H785.263V111H731.759V26.52Z" fill="white"/>
<path d="M50.6221 159H48.7981C47.6141 159 46.8621 158.36 46.5421 157.08L40.9741 132.696H40.8301L35.3581 157.08C35.0381 158.36 34.2701 159 33.0541 159H31.2781C30.1581 159 29.3901 158.36 28.9741 157.08L20.1901 128.136H17.1661C16.7501 128.136 16.5421 127.944 16.5421 127.56V125.112C16.5421 124.728 16.7501 124.536 17.1661 124.536H27.9661C28.3821 124.536 28.5901 124.728 28.5901 125.112V127.56C28.5901 127.944 28.3821 128.136 27.9661 128.136H24.6061L32.0461 153.912H32.3341L39.0061 124.536H42.8461L49.5661 153.912H49.8541L57.2941 128.136H53.8861C53.5021 128.136 53.3101 127.944 53.3101 127.56V125.112C53.3101 124.728 53.5021 124.536 53.8861 124.536H64.7341C65.1181 124.536 65.3101 124.728 65.3101 125.112V127.56C65.3101 127.944 65.1181 128.136 64.7341 128.136H61.6621L52.8781 157.08C52.4941 158.36 51.7421 159 50.6221 159Z" fill="white"/>
<path d="M102.17 159H76.6823C76.2663 159 76.0583 158.808 76.0583 158.424V155.976C76.0583 155.592 76.2663 155.4 76.6823 155.4H80.3303V128.136H76.6823C76.2663 128.136 76.0583 127.944 76.0583 127.56V125.112C76.0583 124.728 76.2663 124.536 76.6823 124.536H102.17C102.586 124.536 102.794 124.728 102.794 125.112V132.84C102.794 133.256 102.586 133.464 102.17 133.464H99.5783C99.1943 133.464 99.0023 133.256 99.0023 132.84V128.136H84.5063V140.04H96.6503C97.0663 140.04 97.2743 140.232 97.2743 140.616V143.064C97.2743 143.448 97.0663 143.64 96.6503 143.64H84.5063V155.4H98.9543V150.696C98.9543 150.312 99.1623 150.12 99.5783 150.12H102.17C102.586 150.12 102.794 150.312 102.794 150.696V158.424C102.794 158.808 102.586 159 102.17 159Z" fill="white"/>
<path d="M171.377 150.312C171.537 150.44 171.617 150.6 171.617 150.792C171.617 150.952 171.537 151.192 171.377 151.512C171.249 151.8 171.009 152.2 170.657 152.712C170.337 153.192 169.745 153.864 168.881 154.728C168.017 155.592 167.073 156.344 166.049 156.984C165.025 157.592 163.665 158.136 161.969 158.616C160.305 159.096 158.513 159.336 156.593 159.336C151.921 159.336 148.017 157.704 144.881 154.44C141.777 151.176 140.225 146.904 140.225 141.624C140.225 136.312 141.793 132.088 144.929 128.952C148.097 125.816 151.905 124.248 156.353 124.248C161.313 124.248 164.913 125.96 167.153 129.384L167.105 125.112C167.041 124.728 167.233 124.536 167.681 124.536H170.369C170.785 124.536 170.993 124.728 170.993 125.112V135.576C170.993 135.992 170.785 136.2 170.369 136.2H167.345C166.961 136.2 166.769 135.992 166.769 135.576V135.144C166.769 133.672 165.761 132.152 163.745 130.584C161.761 128.984 159.281 128.184 156.305 128.184C153.329 128.184 150.641 129.368 148.241 131.736C145.873 134.072 144.689 137.4 144.689 141.72C144.689 146.008 145.889 149.352 148.289 151.752C150.689 154.12 153.505 155.304 156.737 155.304C160.225 155.304 162.977 154.52 164.993 152.952C166.561 151.736 167.713 150.504 168.449 149.256C168.705 148.776 169.009 148.68 169.361 148.968L171.377 150.312Z" fill="white"/>
<path d="M217.716 141.624C217.716 146.872 216.132 151.144 212.964 154.44C209.828 157.704 205.86 159.336 201.06 159.336C196.292 159.336 192.308 157.688 189.108 154.392C185.908 151.064 184.308 146.792 184.308 141.576C184.308 136.328 185.956 132.136 189.252 129C192.548 125.832 196.484 124.248 201.06 124.248C205.636 124.248 209.556 125.832 212.82 129C216.084 132.136 217.716 136.344 217.716 141.624ZM192.468 151.8C194.932 154.232 197.796 155.448 201.06 155.448C204.324 155.448 207.172 154.232 209.604 151.8C212.036 149.336 213.252 145.976 213.252 141.72C213.252 137.432 212.004 134.088 209.508 131.688C207.044 129.256 204.228 128.04 201.06 128.04C197.892 128.04 195.06 129.256 192.564 131.688C190.068 134.088 188.82 137.432 188.82 141.72C188.82 145.976 190.036 149.336 192.468 151.8Z" fill="white"/>
<path d="M264.752 141.624C264.752 146.872 263.168 151.144 260 154.44C256.864 157.704 252.896 159.336 248.096 159.336C243.328 159.336 239.344 157.688 236.144 154.392C232.944 151.064 231.344 146.792 231.344 141.576C231.344 136.328 232.992 132.136 236.288 129C239.584 125.832 243.52 124.248 248.096 124.248C252.672 124.248 256.592 125.832 259.856 129C263.12 132.136 264.752 136.344 264.752 141.624ZM239.504 151.8C241.968 154.232 244.832 155.448 248.096 155.448C251.36 155.448 254.208 154.232 256.64 151.8C259.072 149.336 260.288 145.976 260.288 141.72C260.288 137.432 259.04 134.088 256.544 131.688C254.08 129.256 251.264 128.04 248.096 128.04C244.928 128.04 242.096 129.256 239.6 131.688C237.104 134.088 235.856 137.432 235.856 141.72C235.856 145.976 237.072 149.336 239.504 151.8Z" fill="white"/>
<path d="M307.428 159H303.252C302.1 159 301.14 158.232 300.372 156.696L295.86 147.528C295.604 147.016 295.364 146.616 295.14 146.328C294.948 146.04 294.5 145.752 293.796 145.464C293.124 145.176 292.276 145.032 291.252 145.032H284.484V155.4H288.9C289.316 155.4 289.524 155.592 289.524 155.976V158.424C289.524 158.808 289.316 159 288.9 159H276.66C276.244 159 276.036 158.808 276.036 158.424V155.976C276.036 155.592 276.244 155.4 276.66 155.4H280.308V128.136H276.66C276.244 128.136 276.036 127.944 276.036 127.56V125.112C276.036 124.728 276.244 124.536 276.66 124.536H287.412C287.796 124.536 287.988 124.728 287.988 125.112V127.56C287.988 127.944 287.796 128.136 287.412 128.136H284.484V141.624H289.524C292.916 141.624 295.428 140.632 297.06 138.648C298.724 136.632 299.556 133.128 299.556 128.136H296.292C295.908 128.136 295.716 127.944 295.716 127.56V125.112C295.716 124.728 295.908 124.536 296.292 124.536H306.996C307.38 124.536 307.572 124.728 307.572 125.112V127.56C307.572 127.944 307.38 128.136 306.996 128.136H303.684C303.684 135.848 301.508 140.888 297.156 143.256C297.892 143.608 298.468 144.072 298.884 144.648C299.3 145.192 299.78 146.008 300.324 147.096L304.5 155.4H307.428C307.812 155.4 308.004 155.592 308.004 155.976V158.424C308.004 158.808 307.812 159 307.428 159Z" fill="white"/>
<path d="M380.013 159H369.165C368.781 159 368.589 158.808 368.589 158.424V155.976C368.589 155.592 368.781 155.4 369.165 155.4H372.525L369.405 147.096H356.013L352.893 155.4H356.253C356.637 155.4 356.829 155.592 356.829 155.976V158.424C356.829 158.808 356.637 159 356.253 159H345.453C345.069 159 344.877 158.808 344.877 158.424V155.976C344.877 155.592 345.069 155.4 345.453 155.4H348.669L358.989 128.136H356.397C355.981 128.136 355.773 127.944 355.773 127.56V125.112C355.773 124.728 355.981 124.536 356.397 124.536H362.925C363.693 124.536 364.269 124.696 364.653 125.016C365.069 125.336 365.421 125.864 365.709 126.6L376.749 155.4H380.013C380.397 155.4 380.589 155.592 380.589 155.976V158.424C380.589 158.808 380.397 159 380.013 159ZM368.109 143.784L362.781 129.528H362.637L357.261 143.784H368.109Z" fill="white"/>
<path d="M420.986 159H418.394C417.786 159 417.306 158.888 416.954 158.664C416.602 158.408 416.266 158.024 415.946 157.512L402.074 135.816L399.674 131.784H399.578V155.4H403.274C403.69 155.4 403.898 155.592 403.898 155.976V158.424C403.898 158.808 403.69 159 403.274 159H391.754C391.338 159 391.13 158.808 391.13 158.424V155.976C391.13 155.592 391.338 155.4 391.754 155.4H395.402V128.136H391.754C391.338 128.136 391.13 127.944 391.13 127.56V125.112C391.13 124.728 391.338 124.536 391.754 124.536H398.474C399.402 124.536 400.218 125.08 400.922 126.168L414.602 147.576L417.338 152.232H417.434V128.136H413.738C413.354 128.136 413.162 127.944 413.162 127.56V125.112C413.162 124.728 413.354 124.536 413.738 124.536H425.306C425.69 124.536 425.882 124.728 425.882 125.112V127.56C425.882 127.944 425.69 128.136 425.306 128.136H421.61V158.424C421.61 158.808 421.402 159 420.986 159Z" fill="white"/>
<path d="M452.84 159H439.064C438.68 159 438.488 158.808 438.488 158.424V155.976C438.488 155.592 438.68 155.4 439.064 155.4H442.76V128.136H439.064C438.68 128.136 438.488 127.944 438.488 127.56V125.112C438.488 124.728 438.68 124.536 439.064 124.536H452.024C457.336 124.536 461.56 126.072 464.696 129.144C467.832 132.184 469.4 136.376 469.4 141.72C469.4 147.064 467.912 151.288 464.936 154.392C461.96 157.464 457.928 159 452.84 159ZM446.936 155.4H451.688C460.584 155.336 465.032 150.808 465.032 141.816C465.032 137.496 463.88 134.136 461.576 131.736C459.304 129.336 455.96 128.136 451.544 128.136H446.936V155.4Z" fill="white"/>
<path d="M540.666 159H538.842C537.658 159 536.906 158.36 536.586 157.08L531.018 132.696H530.874L525.402 157.08C525.082 158.36 524.314 159 523.098 159H521.322C520.202 159 519.434 158.36 519.018 157.08L510.234 128.136H507.21C506.794 128.136 506.586 127.944 506.586 127.56V125.112C506.586 124.728 506.794 124.536 507.21 124.536H518.01C518.426 124.536 518.634 124.728 518.634 125.112V127.56C518.634 127.944 518.426 128.136 518.01 128.136H514.65L522.09 153.912H522.378L529.05 124.536H532.89L539.61 153.912H539.898L547.338 128.136H543.93C543.546 128.136 543.354 127.944 543.354 127.56V125.112C543.354 124.728 543.546 124.536 543.93 124.536H554.778C555.162 124.536 555.354 124.728 555.354 125.112V127.56C555.354 127.944 555.162 128.136 554.778 128.136H551.706L542.922 157.08C542.538 158.36 541.786 159 540.666 159Z" fill="white"/>
<path d="M592.215 159H566.727C566.311 159 566.103 158.808 566.103 158.424V155.976C566.103 155.592 566.311 155.4 566.727 155.4H570.375V128.136H566.727C566.311 128.136 566.103 127.944 566.103 127.56V125.112C566.103 124.728 566.311 124.536 566.727 124.536H592.215C592.631 124.536 592.839 124.728 592.839 125.112V132.84C592.839 133.256 592.631 133.464 592.215 133.464H589.623C589.239 133.464 589.047 133.256 589.047 132.84V128.136H574.551V140.04H586.695C587.111 140.04 587.319 140.232 587.319 140.616V143.064C587.319 143.448 587.111 143.64 586.695 143.64H574.551V155.4H588.999V150.696C588.999 150.312 589.207 150.12 589.623 150.12H592.215C592.631 150.12 592.839 150.312 592.839 150.696V158.424C592.839 158.808 592.631 159 592.215 159Z" fill="white"/>
<path d="M659.405 159H655.229C654.077 159 653.117 158.232 652.349 156.696L647.837 147.528C647.453 146.728 647.037 146.136 646.589 145.752C646.173 145.368 645.581 145.16 644.813 145.128H638.717V155.4H643.037C643.421 155.4 643.613 155.592 643.613 155.976V158.424C643.613 158.808 643.421 159 643.037 159H630.893C630.477 159 630.269 158.808 630.269 158.424V155.976C630.269 155.592 630.477 155.4 630.893 155.4H634.541V128.136H630.893C630.477 128.136 630.269 127.944 630.269 127.56V125.112C630.269 124.728 630.477 124.536 630.893 124.536H645.677C649.101 124.536 651.885 125.448 654.029 127.272C656.173 129.064 657.245 131.608 657.245 134.904C657.245 139.928 654.893 143.064 650.189 144.312C650.797 144.792 651.549 145.864 652.445 147.528L656.477 155.4H659.405C659.789 155.4 659.981 155.592 659.981 155.976V158.424C659.981 158.808 659.789 159 659.405 159ZM638.717 141.72H644.861C650.301 141.72 653.021 139.496 653.021 135.048C653.021 130.44 650.301 128.136 644.861 128.136H638.717V141.72Z" fill="white"/>
<path d="M705.959 159H695.111C694.727 159 694.535 158.808 694.535 158.424V155.976C694.535 155.592 694.727 155.4 695.111 155.4H698.471L695.351 147.096H681.959L678.839 155.4H682.199C682.583 155.4 682.775 155.592 682.775 155.976V158.424C682.775 158.808 682.583 159 682.199 159H671.399C671.015 159 670.823 158.808 670.823 158.424V155.976C670.823 155.592 671.015 155.4 671.399 155.4H674.615L684.935 128.136H682.343C681.927 128.136 681.719 127.944 681.719 127.56V125.112C681.719 124.728 681.927 124.536 682.343 124.536H688.871C689.639 124.536 690.215 124.696 690.599 125.016C691.015 125.336 691.367 125.864 691.655 126.6L702.695 155.4H705.959C706.343 155.4 706.535 155.592 706.535 155.976V158.424C706.535 158.808 706.343 159 705.959 159ZM694.055 143.784L688.727 129.528H688.583L683.207 143.784H694.055Z" fill="white"/>
<path d="M730.131 159H728.259C727.651 159 727.187 158.856 726.867 158.568C726.547 158.28 726.259 157.784 726.003 157.08L714.819 128.136H711.747C711.331 128.136 711.123 127.944 711.123 127.56V125.112C711.123 124.728 711.331 124.536 711.747 124.536H722.547C722.931 124.536 723.123 124.728 723.123 125.112V127.56C723.123 127.944 722.931 128.136 722.547 128.136H719.283L729.027 153.912H729.315L739.059 128.136H735.795C735.379 128.136 735.171 127.944 735.171 127.56V125.112C735.171 124.728 735.379 124.536 735.795 124.536H746.595C747.011 124.536 747.219 124.728 747.219 125.112V127.56C747.219 127.944 747.011 128.136 746.595 128.136H743.427L732.339 157.08C732.115 157.752 731.843 158.248 731.523 158.568C731.235 158.856 730.771 159 730.131 159Z" fill="white"/>
<path d="M784.458 159H758.97C758.554 159 758.346 158.808 758.346 158.424V155.976C758.346 155.592 758.554 155.4 758.97 155.4H762.618V128.136H758.97C758.554 128.136 758.346 127.944 758.346 127.56V125.112C758.346 124.728 758.554 124.536 758.97 124.536H784.458C784.874 124.536 785.082 124.728 785.082 125.112V132.84C785.082 133.256 784.874 133.464 784.458 133.464H781.866C781.482 133.464 781.29 133.256 781.29 132.84V128.136H766.794V140.04H778.938C779.354 140.04 779.562 140.232 779.562 140.616V143.064C779.562 143.448 779.354 143.64 778.938 143.64H766.794V155.4H781.242V150.696C781.242 150.312 781.45 150.12 781.866 150.12H784.458C784.874 150.12 785.082 150.312 785.082 150.696V158.424C785.082 158.808 784.874 159 784.458 159Z" fill="white"/>
</svg>
